---
title: 群星.1988-点红点绿点唱机【SONY】【WAV+CUE】
date: 2023-07-13 08:54:28
categories: WAV车载音乐、镜像
tags: 华语中文
---
# 群星.1988-点红点绿点唱机【SONY】【WAV+CUE】

REM GENRE ""
REM DATE 1988
REM DISCID CF0E1A0E
REM COMMENT "ExactAudioCopy v1.6"
PERFORMER "群星"
TITLE "點紅點綠點唱機"
REM COMPOSER ""
FILE "sony-cbs - 点红点绿点唱机.wav" WAVE
TRACK 01 AUDIO
TITLE "激，情"
PERFORMER "林憶蓮"
REM COMPOSER ""
INDEX 01 00:00:00
TRACK 02 AUDIO
TITLE "愛情蝙蝠俠"
PERFORMER "郭小霖"
REM COMPOSER ""
INDEX 00 04:20:20
INDEX 01 04:22:00
TRACK 03 AUDIO
TITLE "ROCK'N ROUGE*"
PERFORMER "松田聖子"
REM COMPOSER ""
INDEX 00 08:19:12
INDEX 01 08:20:72
TRACK 04 AUDIO
TITLE "豈有此理"
PERFORMER "BLUE JEANS
"
REM COMPOSER ""
INDEX 00 12:34:45
INDEX 01 12:36:40
TRACK 05 AUDIO
TITLE "I'M HERE**"
PERFORMER "小比類卷かほる"
REM COMPOSER ""
INDEX 00 16:14:37
INDEX 01 16:16:20
TRACK 06 AUDIO
TITLE "SEASON IN THE
SUN*"
PERFORMER "TUBE "
REM COMPOSER ""
INDEX 00 22:05:60
INDEX 01 22:07:60
TRACK 07 AUDIO
TITLE "震盪"
PERFORMER "陳秀雯"
REM COMPOSER ""
INDEX 00 26:08:35
INDEX 01 26:12:27
TRACK 08 AUDIO
TITLE "絕對空虛"
PERFORMER "蔡楓華"
REM COMPOSER ""
INDEX 00 30:02:37
INDEX 01 30:04:50
TRACK 09 AUDIO
TITLE "雨夜鋼琴"
PERFORMER "林志美"
REM COMPOSER ""
INDEX 00 34:12:42
INDEX 01 34:14:40
TRACK 10 AUDIO
TITLE "大將*"
PERFORMER "近藤眞彥"
REM COMPOSER ""
INDEX 00 37:55:58
INDEX 01 38:06:47
TRACK 11 AUDIO
TITLE "狠心女子"
PERFORMER "甄楚倩"
REM COMPOSER ""
INDEX 00 42:37:45
INDEX 01 42:39:32
TRACK 12 AUDIO
TITLE "雨のプラネタリウム*"
PERFORMER "原田知世"
REM COMPOSER ""
INDEX 00 46:59:16
INDEX 01 47:12:60
TRACK 13 AUDIO
TITLE "心跳"
PERFORMER "傅振榮"
REM COMPOSER ""
INDEX 00 51:22:32
INDEX 01 51:24:02
TRACK 14 AUDIO
TITLE "傷心酒店"
PERFORMER "何嘉麗"
REM COMPOSER ""
INDEX 00 55:49:07
INDEX 01 55:51:20
|——【11869】群星 - 点红点绿点唱机 [日本索尼版] 1988 原抓WAV+CUE
| |-COVER.jpg
| |-DISC.jpg
| |-BACK.jpg
| |-群星 - 点红点绿点唱机.cue
| |-群星 - 点红点绿点唱机.log
| |-群星 - 点红点绿点唱机.wav
群星.1988 - 点红点绿点唱机【SONY】【WAV+CUE】.rar: https://url27.ctfile.com/f/9388027-886687857-15fb7e?p=559675
(访问密码: 559675)
WAV,FLAC,APE,MP3: https://url27.ctfile.com/d/9388027-19437416-b18f0a?p=559675
(访问密码: 559675)
原文：[链接](https://blog.sina.com.cn/s/blog_1647c7e76010312os.html)